<svg xmlns="http://www.w3.org/2000/svg" viewBox="0 0 32 32" fill="none">
  <path d="M2.67 9.33L8.55 3.45a2.67 2.67 0 0 1 3.89 0L29.33 9.33" stroke="#EA580C" stroke-width="2.67" stroke-linecap="round" stroke-linejoin="round"/>
  <path d="M5.33 16v10.67c0 .71.28 1.39.78 1.89.5.5 1.18.78 1.89.78h16c.71 0 1.39-.28 1.89-.78.5-.5.78-1.18.78-1.89V16" stroke="#EA580C" stroke-width="2.67" stroke-linecap="round" stroke-linejoin="round"/>
  <path d="M2.67 9.33h26.66" stroke="#EA580C" stroke-width="2.67" stroke-linecap="round" stroke-linejoin="round"/>
  <path d="M12 29.33V24c0-.71.28-1.39.78-1.89.5-.5 1.18-.78 1.89-.78h2.67c.71 0 1.39.28 1.89.78.5.5.78 1.18.78 1.89v5.33" stroke="#EA580C" stroke-width="2.67" stroke-linecap="round" stroke-linejoin="round"/>
</svg>
