<svg width="32" height="32" viewBox="0 0 32 32" fill="none" xmlns="http://www.w3.org/2000/svg">
<path d="M2.66675 9.33335L8.54675 3.45335C8.79483 3.2038 9.08984 3.0058 9.41479 2.87079C9.73974 2.73578 10.0882 2.66641 10.4401 2.66669H21.5601C21.912 2.66641 22.2604 2.73578 22.5854 2.87079C22.9103 3.0058 23.2053 3.2038 23.4534 3.45335L29.3334 9.33335" stroke="white" stroke-width="2.66667" stroke-linecap="round" stroke-linejoin="round"/>
<path d="M5.33325 16V26.6667C5.33325 27.3739 5.6142 28.0522 6.1143 28.5523C6.6144 29.0524 7.29267 29.3333 7.99992 29.3333H23.9999C24.7072 29.3333 25.3854 29.0524 25.8855 28.5523C26.3856 28.0522 26.6666 27.3739 26.6666 26.6667V16" stroke="white" stroke-width="2.66667" stroke-linecap="round" stroke-linejoin="round"/>
<path d="M20 29.3333V24C20 23.2927 19.719 22.6145 19.219 22.1144C18.7189 21.6143 18.0406 21.3333 17.3333 21.3333H14.6667C13.9594 21.3333 13.2811 21.6143 12.781 22.1144C12.281 22.6145 12 23.2927 12 24V29.3333" stroke="white" stroke-width="2.66667" stroke-linecap="round" stroke-linejoin="round"/>
<path d="M2.66675 9.33331H29.3334" stroke="white" stroke-width="2.66667" stroke-linecap="round" stroke-linejoin="round"/>
<path d="M29.3334 9.33331V13.3333C29.3334 14.0406 29.0525 14.7188 28.5524 15.2189C28.0523 15.719 27.374 16 26.6667 16C25.8877 15.9571 25.1437 15.6623 24.5467 15.16C24.3877 15.045 24.1964 14.9831 24.0001 14.9831C23.8038 14.9831 23.6125 15.045 23.4534 15.16C22.8564 15.6623 22.1124 15.9571 21.3334 16C20.5544 15.9571 19.8104 15.6623 19.2134 15.16C19.0543 15.045 18.863 14.9831 18.6667 14.9831C18.4705 14.9831 18.2792 15.045 18.1201 15.16C17.5231 15.6623 16.7791 15.9571 16.0001 16C15.2211 15.9571 14.4771 15.6623 13.8801 15.16C13.721 15.045 13.5297 14.9831 13.3334 14.9831C13.1371 14.9831 12.9458 15.045 12.7867 15.16C12.1898 15.6623 11.4458 15.9571 10.6667 16C9.88773 15.9571 9.14372 15.6623 8.54675 15.16C8.38766 15.045 8.19637 14.9831 8.00008 14.9831C7.8038 14.9831 7.61251 15.045 7.45342 15.16C6.85644 15.6623 6.11243 15.9571 5.33341 16C4.62617 16 3.94789 15.719 3.4478 15.2189C2.9477 14.7188 2.66675 14.0406 2.66675 13.3333V9.33331" stroke="white" stroke-width="2.66667" stroke-linecap="round" stroke-linejoin="round"/>
</svg>
